<?xml version="1.0" encoding="utf-8"?>
<!-- Generator: Adobe Illustrator 18.1.0, SVG Export Plug-In . SVG Version: 6.00 Build 0)  -->
<svg version="1.1" id="Layer_1" xmlns="http://www.w3.org/2000/svg" xmlns:xlink="http://www.w3.org/1999/xlink" x="0px" y="0px"
	 viewBox="0 0 200 200" enable-background="new 0 0 200 200" xml:space="preserve">
<path fill="#FFFFFF" d="M184.9,123H15.1c-6.6,0-12-5.4-12-12V89c0-6.6,5.4-12,12-12h169.9c6.6,0,12,5.4,12,12V111
	C196.9,117.6,191.5,123,184.9,123z"/>
<path fill="#FFFFFF" d="M184.9,196H15.1c-6.6,0-12-5.4-12-12V162c0-6.6,5.4-12,12-12h169.9c6.6,0,12,5.4,12,12V184
	C196.9,190.6,191.5,196,184.9,196z"/>
<path fill="#FFFFFF" d="M184.9,50H15.1c-6.6,0-12-5.4-12-12V16c0-6.6,5.4-12,12-12h169.9c6.6,0,12,5.4,12,12V38
	C196.9,44.6,191.5,50,184.9,50z"/>
</svg>
