<?xml version="1.0" encoding="utf-8"?>
<!-- Generator: Adobe Illustrator 18.0.0, SVG Export Plug-In . SVG Version: 6.00 Build 0)  -->
<!DOCTYPE svg PUBLIC "-//W3C//DTD SVG 1.1//EN" "http://www.w3.org/Graphics/SVG/1.1/DTD/svg11.dtd">
<svg version="1.1" id="Layer_1" xmlns="http://www.w3.org/2000/svg" xmlns:xlink="http://www.w3.org/1999/xlink" x="0px" y="0px"
	 viewBox="0 0 1200 1200" enable-background="new 0 0 1200 1200" xml:space="preserve">
<path d="M472.4,572.3c0,0,119.1-154.4,23.9-278.8S93.9,77.7,93.9,77.7S90.2,388.5,188,516.3S472.4,572.3,472.4,572.3z"/>
<path d="M413,796.5c0,0-85.5-101-181.6-55.5S31,977.3,31,977.3s205.7,46.7,304.4-0.1S413,796.5,413,796.5z"/>
<path d="M871.4,583.9c0,0,150.6,56.3,225.5-49.1c74.9-105.4,72.1-369.6,72.1-369.6s-245.8,72.8-322.6,181S871.4,583.9,871.4,583.9z"
	/>
<path fill="none" stroke="#000000" stroke-width="37" stroke-miterlimit="10" d="M863.6,1139.5c0-156.8-163.6-479.7-448.7-610.9"/>
<path fill="none" stroke="#000000" stroke-width="37" stroke-miterlimit="10" d="M722.4,790.1c0,0,33-218.2,270.9-261.4"/>
<path fill="none" stroke="#000000" stroke-width="29" stroke-miterlimit="10" d="M770.5,863.7c0,0-258.3-191.7-425.8-44.4"/>
</svg>
