<?xml version="1.0" encoding="UTF-8" standalone="no"?>
<svg width="137px" height="47px" viewBox="0 0 137 47" version="1.1" xmlns="http://www.w3.org/2000/svg" xmlns:xlink="http://www.w3.org/1999/xlink" xmlns:sketch="http://www.bohemiancoding.com/sketch/ns">
    <title>powered_by_light_fill</title>
    <description>Created with Sketch (http://www.bohemiancoding.com/sketch)</description>
    <defs></defs>
    <g id="Page-1" stroke="none" stroke-width="1" fill="none" fill-rule="evenodd" sketch:type="MSPage">
        <g id="Light-Fill" sketch:type="MSArtboardGroup" transform="translate(-180.000000, -10.000000)">
            <g id="medium" sketch:type="MSLayerGroup" transform="translate(180.000000, 10.000000)">
                <rect d="M4.00750669,0 C1.79422186,0 0,1.78506374 0,4.00719357 L0,42.9928064 C0,45.2059183 1.78229254,47 4.00750669,47 L132.992493,47 C135.205778,47 137,45.2149363 137,42.9928064 L137,4.00719357 C137,1.79408167 135.217707,0 132.992493,0 L4.00750669,0 Z M4.00750669,0" id="fill" fill="#FFFFFF" sketch:type="MSShapeGroup" x="0" y="0" width="137" height="47" rx="4"></rect>
                <path d="M28.9369658,18.3347301 C28.8718982,17.4640187 28.68449,16.6276864 28.3906691,15.8437738 C27.6552698,13.8821203 26.2590278,12.2475791 24.4744135,11.2100778 C23.9809843,10.9234715 23.4577324,10.6824771 22.910758,10.4928812 C21.9930339,10.1749592 21.0085477,10 19.9827164,10 C15.0219904,10 11,14.0397197 11,19.0226534 C11,24.0055871 19.9827164,39 19.9827164,39 C19.9827164,39 21.2922017,36.8143714 22.910758,33.8356398 C20.3934556,29.2026245 17.1295704,22.6522061 16.8733667,19.4103548 C16.8625221,19.2759017 16.8560831,19.1451929 16.8560831,19.0226534 C16.8560831,18.7915302 16.8672666,18.5634705 16.8845502,18.3371128 C17.1739654,16.8836579 18.4509169,15.7886311 19.9827164,15.7886311 C20.1796137,15.7886311 20.3714275,15.8093947 20.557819,15.8437738 C21.6297398,16.0418794 22.5108634,16.7812012 22.9110969,17.7700271 C23.0598712,18.1386669 23.1439169,18.541005 23.1439169,18.9637663 C23.1439169,19.2541169 23.0558045,19.6431799 22.9110969,20.0870453 C22.553564,21.1827529 21.8445984,22.62055 21.2132394,23.8047584 C22.0706405,26.022043 23.2723576,28.5398899 24.4744135,30.8800545 C25.6764695,28.5398899 26.8778476,26.022043 27.7355876,23.8047584 C28.4011748,22.0840992 28.8580035,20.5458878 28.9478104,19.411376 C28.9803442,19.2456072 29,19.0941348 29,18.9637663 C29,18.748301 28.977633,18.5382819 28.9369658,18.3347301" id="Pin-Logo-Mono" fill="#000000" sketch:type="MSShapeGroup"></path>
                <text id="Powered-by" fill-opacity="0.8" fill="#000000" sketch:type="MSTextLayer" font-family="Helvetica Neue" font-size="11" font-weight="normal">
                    <tspan x="35" y="20">Powered by</tspan>
                </text>
                <text id="Pin-Payments" fill="#000000" sketch:type="MSTextLayer" font-family="Helvetica Neue" font-size="14" font-weight="bold">
                    <tspan x="34.9" y="35">Pin Payments</tspan>
                </text>
            </g>
        </g>
    </g>
</svg>