<?xml version="1.0" encoding="utf-8"?>
<!-- Generator: Adobe Illustrator 18.1.0, SVG Export Plug-In . SVG Version: 6.00 Build 0)  -->
<svg version="1.1" id="Layer_1" xmlns="http://www.w3.org/2000/svg" xmlns:xlink="http://www.w3.org/1999/xlink" x="0px" y="0px"
	 viewBox="385 385 30 30" enable-background="new 385 385 30 30" xml:space="preserve">
<g>
	<path d="M414.1,404.9c0,0.5-0.9,1-2.7,1.1h-22.8c-1.7,0-2.8-0.7-2.8-1.3v4.8c0,1.7,0.8,2.3,2.5,2.3h23.5c1.7,0,2.3-0.8,2.3-2.3"/>
	<path d="M411.2,388.3h-22.4c-1.9,0-3,1-3,2.9v11.2c0,1.6,1.2,2.1,2.9,2.1h23c1.5,0,2.4-0.8,2.4-2.1v-11.2
		C414.1,389.2,413.1,388.3,411.2,388.3z M400,402.2c-1.2,0-2.2-1-2.2-2.2s1-2.2,2.2-2.2s2.2,1,2.2,2.2S401.2,402.2,400,402.2z"/>
</g>
</svg>
