<?xml version="1.0" encoding="utf-8"?>
<!-- Generator: Adobe Illustrator 18.0.0, SVG Export Plug-In . SVG Version: 6.00 Build 0)  -->
<!DOCTYPE svg PUBLIC "-//W3C//DTD SVG 1.1//EN" "http://www.w3.org/Graphics/SVG/1.1/DTD/svg11.dtd">
<svg version="1.1" id="Capa_1" xmlns="http://www.w3.org/2000/svg" xmlns:xlink="http://www.w3.org/1999/xlink" x="0px" y="0px"
	 viewBox="0 0 628.3 613.5" enable-background="new 0 0 628.3 613.5" xml:space="preserve">
<g>
	<g>
		<g>
			<g>
				<path d="M108.5,440.4C102.1,452,97,469.3,97,480.3c0,2.5,0,5.8,0.6,10.3L17.3,352.4c-2.6-4.5-4.5-10.9-4.5-16.7
					c0-5.8,1.9-12.9,4.5-17.3l38.6-67.5l-43-24.4l140.1-2.6L221,346.6l-43.7-25.1L108.5,440.4z M170.2,51.1
					c12.2-21.2,32.1-32.8,56.5-32.8c26.4,0,46.9,12.2,61.7,37.2l21.8,36.6l-75.8,131.1l-122.7-71.3L170.2,51.1z M179.2,551.5
					c-36.6,0-66.8-30.2-66.8-66.8c0-10.3,4.5-27.6,10.9-38.6l20.5-36.6h152.3v142L179.2,551.5L179.2,551.5z M301.3,47.2
					c-9.6-16.7-22.5-28.3-37.9-34.7h158c14.1,0,25,5.8,31.5,16.7L492.1,96L534.5,71l-68.1,122.1l-139.4-2l43-24.4L301.3,47.2z
					 M544.8,410.9c19.3,0,35.3-5.1,48.8-15.4l-79.7,138.8c-6.4,10.9-18,17.3-31.5,17.3h-75.2V601l-71.9-120.1l71.9-120.2v50.1
					L544.8,410.9L544.8,410.9z M606.4,295.2c5.8,10.3,9,21.2,9,32.8c0,23.1-14.8,47.6-35.3,59.1c-9.7,5.2-23.2,8.4-36.6,8.4h-42.4
					l-75.8-131.1l122.7-70L606.4,295.2z"/>
			</g>
		</g>
	</g>
</g>
</svg>
