<?xml version="1.0" encoding="utf-8"?>
<!-- Generator: Adobe Illustrator 18.1.0, SVG Export Plug-In . SVG Version: 6.00 Build 0)  -->
<svg version="1.1" id="Layer_1" xmlns="http://www.w3.org/2000/svg" xmlns:xlink="http://www.w3.org/1999/xlink" x="0px" y="0px"
	 viewBox="0 0 200 200" enable-background="new 0 0 200 200" xml:space="preserve">
<path fill="#FFFFFF" d="M197.2,133.5c0,3.2-6.2,7.2-18.4,7.5H22c-12,0-19.2-4.7-19.2-9v32.8c0,11.5,5.2,16,17,16h161.5
	c11.4,0,16-5.2,16-16"/>
<path fill="#FFFFFF" d="M176.9,19.2H23.1c-13.1,0-20.3,7.2-20.3,20V116c0,11.3,8.2,14.7,19.9,14.7h158.2c10.2,0,16.5-5.7,16.5-14.7
	V39.2C197.2,25.7,190,19.2,176.9,19.2z M100,114.8c-8.2,0-14.8-6.6-14.8-14.8s6.6-14.8,14.8-14.8s14.8,6.6,14.8,14.8
	S108.2,114.8,100,114.8z"/>
</svg>
