<?xml version="1.0" encoding="utf-8"?>
<!-- Generator: Adobe Illustrator 18.1.0, SVG Export Plug-In . SVG Version: 6.00 Build 0)  -->
<svg version="1.1" id="Layer_1" xmlns="http://www.w3.org/2000/svg" xmlns:xlink="http://www.w3.org/1999/xlink" x="0px" y="0px"
	 viewBox="0 56.8 800 678.1" enable-background="new 0 56.8 800 678.1" xml:space="preserve">
<path d="M788.8,534c0,12.8-24.8,28.8-73.6,30H88c-48,0-76.8-18.8-76.8-36v131.2c0,46,20.8,64,68,64h646c45.6,0,64-20.8,64-64"/>
<path d="M707.6,76.8H92.4c-52.4,0-81.2,28.8-81.2,80V464c0,45.2,32.8,58.8,79.6,58.8h632.8c40.8,0,66-22.8,66-58.8V156.8
	C788.8,102.8,760,76.8,707.6,76.8z M400,459.2c-32.8,0-59.2-26.4-59.2-59.2s26.4-59.2,59.2-59.2s59.2,26.4,59.2,59.2
	S432.8,459.2,400,459.2z"/>
</svg>
