<?xml version="1.0" encoding="utf-8"?>
<!-- Generator: Adobe Illustrator 18.0.0, SVG Export Plug-In . SVG Version: 6.00 Build 0)  -->
<!DOCTYPE svg PUBLIC "-//W3C//DTD SVG 1.1//EN" "http://www.w3.org/Graphics/SVG/1.1/DTD/svg11.dtd">
<svg version="1.1" id="Layer_1" xmlns="http://www.w3.org/2000/svg" xmlns:xlink="http://www.w3.org/1999/xlink" x="0px" y="0px"
	 viewBox="0 0 1024.2 1078.9" enable-background="new 0 0 1024.2 1078.9" xml:space="preserve">
<path d="M405,826.4c32.3,66.2,266.5-28.7,308.4-150.4L661.4,658c0,0,119.6-77.7,172.2-230.4l-51.8-2.9c0,0,75.5-205.5,7.3-309.2
	l-20.7-24.8C645.2,74.9,493.7,232.8,493.7,232.8l-25.3-45.3C354.2,301.7,336.8,443.3,336.8,443.3l-38.9-38.9
	c-91.1,91.1-73.7,343.2,0,343.2c0,0,144.2-233.1,215.8-278.7c71.6-45.5-283.2,426.6-296.8,503.4l61.1,31.6L405,826.4z"/>
</svg>
